<mxfile>
  <diagram>
    <mxGraphModel dx="4000" dy="4000" grid="1" gridSize="10" guides="1" tooltips="1" connect="1" arrows="1" fold="1" pageScale="1" pageWidth="4000" pageHeight="4000" math="0" shadow="0">
      <root>
        <mxCell id="0"/>
        <mxCell id="1" parent="0"/>
        <object label="Webex EQ CODEC, CS-CODEC-EQ-NR++" type="matrix" id="3597010981537962536">
          <mxCell id="9870215740680117578" value="Webex EQ CODEC, CS-CODEC-EQ-NR++" style="rounded=0;whiteSpace=wrap;html=1;" parent="1" connectable="" edge="" vertex="1" source="" target="">
            <mxGeometry x="1900" y="3400" width="200" height="1400" relative="" as="geometry"/>
          </mxCell>
        </object>
        <object label="Webex EQ CODEC, CS-CODEC-EQ-NR++" type="DTP" id="3579683803987152524">
          <mxCell id="2879528001498198892" value="Webex EQ CODEC, CS-CODEC-EQ-NR++" style="rounded=0;whiteSpace=wrap;html=1;" parent="1" connectable="" edge="" vertex="1" source="" target="">
            <mxGeometry x="1500" y="3400" width="160" height="90" relative="" as="geometry"/>
          </mxCell>
        </object>
        <object label="Webex EQ CODEC, CS-CODEC-EQ-NR++" type="DTP" id="4604814719756647961">
          <mxCell id="3297195383842769797" value="Webex EQ CODEC, CS-CODEC-EQ-NR++" style="rounded=0;whiteSpace=wrap;html=1;" parent="1" connectable="" edge="" vertex="1" source="" target="">
            <mxGeometry x="1500" y="3540" width="160" height="90" relative="" as="geometry"/>
          </mxCell>
        </object>
        <object label="DA HD 4K Plus, 60-1607-01" type="DTP" id="4776288625687346256">
          <mxCell id="4259171421115751937" value="DA HD 4K Plus, 60-1607-01" style="rounded=0;whiteSpace=wrap;html=1;" parent="1" connectable="" edge="" vertex="1" source="" target="">
            <mxGeometry x="1500" y="3680" width="160" height="90" relative="" as="geometry"/>
          </mxCell>
        </object>
        <object label="232-ATSC 4K HDTV, 5114-001" type="DTP" id="6793566528430737115">
          <mxCell id="5686744027596121144" value="232-ATSC 4K HDTV, 5114-001" style="rounded=0;whiteSpace=wrap;html=1;" parent="1" connectable="" edge="" vertex="1" source="" target="">
            <mxGeometry x="1500" y="3820" width="160" height="90" relative="" as="geometry"/>
          </mxCell>
        </object>
        <object label="DTP 4K 230 Tx, 60-1271-12" type="DTP" id="3162265923009906439">
          <mxCell id="1414345107657369573" value="DTP 4K 230 Tx, 60-1271-12" style="rounded=0;whiteSpace=wrap;html=1;" parent="1" connectable="" edge="" vertex="1" source="" target="">
            <mxGeometry x="1500" y="4240" width="160" height="90" relative="" as="geometry"/>
          </mxCell>
        </object>
        <object label="DTP 4K 230 Tx, 60-1271-12" type="DTP" id="5100138694655427410">
          <mxCell id="7647578632529292109" value="DTP 4K 230 Tx, 60-1271-12" style="rounded=0;whiteSpace=wrap;html=1;" parent="1" connectable="" edge="" vertex="1" source="" target="">
            <mxGeometry x="1500" y="4380" width="160" height="90" relative="" as="geometry"/>
          </mxCell>
        </object>
        <object label="DTP 4K 230 Tx, 60-1271-12" type="DTP" id="8972099222461305843">
          <mxCell id="1542123996496153942" value="DTP 4K 230 Tx, 60-1271-12" style="rounded=0;whiteSpace=wrap;html=1;" parent="1" connectable="" edge="" vertex="1" source="" target="">
            <mxGeometry x="1500" y="4520" width="160" height="90" relative="" as="geometry"/>
          </mxCell>
        </object>
        <object label="DTP 4K 230 Tx, 60-1271-12" type="DTP" id="8875483854233986190">
          <mxCell id="4890245383766937943" value="DTP 4K 230 Tx, 60-1271-12" style="rounded=0;whiteSpace=wrap;html=1;" parent="1" connectable="" edge="" vertex="1" source="" target="">
            <mxGeometry x="1500" y="4660" width="160" height="90" relative="" as="geometry"/>
          </mxCell>
        </object>
        <object label="TEST" type="DTP" id="2721021755667980715">
          <mxCell id="7602585516178854836" value="TEST" style="rounded=0;whiteSpace=wrap;html=1;" parent="1" connectable="" edge="" vertex="1" source="" target="">
            <mxGeometry x="1100" y="3400" width="160" height="90" relative="" as="geometry"/>
          </mxCell>
        </object>
        <object label="OneLink Bridge" type="DTP" id="4362632898532307611">
          <mxCell id="4755149654449425158" value="OneLink Bridge" style="rounded=0;whiteSpace=wrap;html=1;" parent="1" connectable="" edge="" vertex="1" source="" target="">
            <mxGeometry x="1100" y="3540" width="160" height="90" relative="" as="geometry"/>
          </mxCell>
        </object>
        <object label="BYOD" type="DTP" id="8617177599960335374">
          <mxCell id="7586385567062004888" value="BYOD" style="rounded=0;whiteSpace=wrap;html=1;" parent="1" connectable="" edge="" vertex="1" source="" target="">
            <mxGeometry x="1100" y="4240" width="160" height="90" relative="" as="geometry"/>
          </mxCell>
        </object>
        <object label="BYOD" type="DTP" id="1942619788010721886">
          <mxCell id="9107227587083108739" value="BYOD" style="rounded=0;whiteSpace=wrap;html=1;" parent="1" connectable="" edge="" vertex="1" source="" target="">
            <mxGeometry x="1100" y="4380" width="160" height="90" relative="" as="geometry"/>
          </mxCell>
        </object>
        <object label="BYOD" type="DTP" id="778721366116208844">
          <mxCell id="1110924142828355100" value="BYOD" style="rounded=0;whiteSpace=wrap;html=1;" parent="1" connectable="" edge="" vertex="1" source="" target="">
            <mxGeometry x="1100" y="4520" width="160" height="90" relative="" as="geometry"/>
          </mxCell>
        </object>
        <object label="BYOD" type="DTP" id="696382033109605625">
          <mxCell id="5929372532257316538" value="BYOD" style="rounded=0;whiteSpace=wrap;html=1;" parent="1" connectable="" edge="" vertex="1" source="" target="">
            <mxGeometry x="1100" y="4660" width="160" height="90" relative="" as="geometry"/>
          </mxCell>
        </object>
        <object label="Vaddio Roboshot 12E, 999-99600-100" type="DTP" id="7013441807746379393">
          <mxCell id="5462696401230904935" value="Vaddio Roboshot 12E, 999-99600-100" style="rounded=0;whiteSpace=wrap;html=1;" parent="1" connectable="" edge="" vertex="1" source="" target="">
            <mxGeometry x="700" y="3400" width="160" height="90" relative="" as="geometry"/>
          </mxCell>
        </object>
        <object label="Webex EQ CODEC, CS-CODEC-EQ-NR++" type="DTP" id="1343640102603073401">
          <mxCell id="9480014804342420923" value="Webex EQ CODEC, CS-CODEC-EQ-NR++" style="rounded=0;whiteSpace=wrap;html=1;" parent="1" connectable="" edge="" vertex="1" source="" target="">
            <mxGeometry x="2300" y="3400" width="160" height="90" relative="" as="geometry"/>
          </mxCell>
        </object>
        <object label="Webex EQ CODEC, CS-CODEC-EQ-NR++" type="DTP" id="4627942054360168774">
          <mxCell id="5879731500856937429" value="Webex EQ CODEC, CS-CODEC-EQ-NR++" style="rounded=0;whiteSpace=wrap;html=1;" parent="1" connectable="" edge="" vertex="1" source="" target="">
            <mxGeometry x="2300" y="3540" width="160" height="90" relative="" as="geometry"/>
          </mxCell>
        </object>
        <object label="DA HD 4K Plus, 60-1607-01" type="DTP" id="6953409623927746007">
          <mxCell id="3557857141796593881" value="DA HD 4K Plus, 60-1607-01" style="rounded=0;whiteSpace=wrap;html=1;" parent="1" connectable="" edge="" vertex="1" source="" target="">
            <mxGeometry x="2300" y="3680" width="160" height="90" relative="" as="geometry"/>
          </mxCell>
        </object>
        <object label="232-ATSC 4K HDTV, 5114-001" type="DTP" id="1913355138090840665">
          <mxCell id="7780904855056997003" value="232-ATSC 4K HDTV, 5114-001" style="rounded=0;whiteSpace=wrap;html=1;" parent="1" connectable="" edge="" vertex="1" source="" target="">
            <mxGeometry x="2300" y="3820" width="160" height="90" relative="" as="geometry"/>
          </mxCell>
        </object>
        <object label="Test" type="DTP" id="2100154623140800602">
          <mxCell id="644624286066929475" value="Test" style="rounded=0;whiteSpace=wrap;html=1;" parent="1" connectable="" edge="" vertex="1" source="" target="">
            <mxGeometry x="2300" y="3960" width="160" height="90" relative="" as="geometry"/>
          </mxCell>
        </object>
        <object label="DTP 4K 230 Tx, 60-1271-12" type="DTP" id="7763764658389869177">
          <mxCell id="7769154397713865871" value="DTP 4K 230 Tx, 60-1271-12" style="rounded=0;whiteSpace=wrap;html=1;" parent="1" connectable="" edge="" vertex="1" source="" target="">
            <mxGeometry x="2300" y="4100" width="160" height="90" relative="" as="geometry"/>
          </mxCell>
        </object>
        <object label="DTP 4K 230 Tx, 60-1271-12" type="DTP" id="211350054299872641">
          <mxCell id="6346057844441493143" value="DTP 4K 230 Tx, 60-1271-12" style="rounded=0;whiteSpace=wrap;html=1;" parent="1" connectable="" edge="" vertex="1" source="" target="">
            <mxGeometry x="2300" y="4240" width="160" height="90" relative="" as="geometry"/>
          </mxCell>
        </object>
        <object label="DTP 4K 230 Tx, 60-1271-12" type="DTP" id="5385775184441559988">
          <mxCell id="5070086395487597675" value="DTP 4K 230 Tx, 60-1271-12" style="rounded=0;whiteSpace=wrap;html=1;" parent="1" connectable="" edge="" vertex="1" source="" target="">
            <mxGeometry x="2300" y="4380" width="160" height="90" relative="" as="geometry"/>
          </mxCell>
        </object>
        <object label="DTP 4K 230 Tx, 60-1271-12" type="DTP" id="6373280213846928349">
          <mxCell id="6875083581253042245" value="DTP 4K 230 Tx, 60-1271-12" style="rounded=0;whiteSpace=wrap;html=1;" parent="1" connectable="" edge="" vertex="1" source="" target="">
            <mxGeometry x="2300" y="4520" width="160" height="90" relative="" as="geometry"/>
          </mxCell>
        </object>
        <object label="75 UHD Samsung" type="DTP" id="8996559327943786189">
          <mxCell id="7711293485804041115" value="75 UHD Samsung" style="rounded=0;whiteSpace=wrap;html=1;" parent="1" connectable="" edge="" vertex="1" source="" target="">
            <mxGeometry x="2700" y="3400" width="160" height="90" relative="" as="geometry"/>
          </mxCell>
        </object>
        <object label="75 UHD Samsung" type="DTP" id="5308307652534869223">
          <mxCell id="258708145294800799" value="75 UHD Samsung" style="rounded=0;whiteSpace=wrap;html=1;" parent="1" connectable="" edge="" vertex="1" source="" target="">
            <mxGeometry x="2700" y="3540" width="160" height="90" relative="" as="geometry"/>
          </mxCell>
        </object>
        <object label="75 UHD Samsung" type="DTP" id="4571865182899984955">
          <mxCell id="8698659791278341245" value="75 UHD Samsung" style="rounded=0;whiteSpace=wrap;html=1;" parent="1" connectable="" edge="" vertex="1" source="" target="">
            <mxGeometry x="2700" y="3680" width="160" height="90" relative="" as="geometry"/>
          </mxCell>
        </object>
        <object label="75 UHD Samsung" type="DTP" id="1737464149431556159">
          <mxCell id="1097164616041808649" value="75 UHD Samsung" style="rounded=0;whiteSpace=wrap;html=1;" parent="1" connectable="" edge="" vertex="1" source="" target="">
            <mxGeometry x="2700" y="3820" width="160" height="90" relative="" as="geometry"/>
          </mxCell>
        </object>
      </root>
    </mxGraphModel>
  </diagram>
</mxfile>
